<svg xmlns="http://www.w3.org/2000/svg" width="28" height="40" viewBox="0 0 28 40">
  <metadata><?xpacket begin="﻿" id="W5M0MpCehiHzreSzNTczkc9d"?>
<x:xmpmeta xmlns:x="adobe:ns:meta/" x:xmptk="Adobe XMP Core 5.6-c142 79.160924, 2017/07/13-01:06:39        ">
   <rdf:RDF xmlns:rdf="http://www.w3.org/1999/02/22-rdf-syntax-ns#">
      <rdf:Description rdf:about=""/>
   </rdf:RDF>
</x:xmpmeta>
                                                                                                    
                                                                                                    
                                                                                                    
                                                                                                    
                                                                                                    
                                                                                                    
                                                                                                    
                                                                                                    
                                                                                                    
                                                                                                    
                                                                                                    
                                                                                                    
                                                                                                    
                                                                                                    
                                                                                                    
                                                                                                    
                                                                                                    
                                                                                                    
                                                                                                    
                                                                                                    
                           
<?xpacket end="w"?></metadata>
<defs>
    <style>
      .cls-1 {
        fill: #0d0d0d;
        fill-rule: evenodd;
      }
    </style>
  </defs>
  <path id="bulb" class="cls-1" d="M14,0A13.75,13.75,0,0,0,.25,13.748c0,5.039,4.611,10.38,6.289,15.069C9.043,35.813,8.766,40,14,40c5.313,0,4.956-4.167,7.461-11.152,1.685-4.7,6.289-10.1,6.289-15.1A13.75,13.75,0,0,0,14,0Zm3.241,33.97-6.2.776c-0.221-.641-0.459-1.391-0.747-2.367,0-.012-0.008-0.027-0.011-0.039l7.736-.966c-0.11.37-.228,0.758-0.33,1.1C17.527,33.038,17.379,33.526,17.241,33.968ZM9.92,31.134q-0.341-1.128-.769-2.385h9.707c-0.153.449-.306,0.9-0.439,1.323ZM14,37.5a2.172,2.172,0,0,1-2.5-1.562l5.3-.663C16.035,37.341,15.476,37.5,14,37.5Zm5.84-11.25H8.174c-0.623-1.349-1.37-2.7-2.107-4.021C4.436,19.309,2.75,16.29,2.75,13.748a11.25,11.25,0,0,1,22.5,0c0,2.523-1.687,5.558-3.319,8.495C21.2,23.56,20.459,24.906,19.84,26.249ZM14,6.249a7.508,7.508,0,0,0-7.5,7.5,0.625,0.625,0,1,0,1.25,0A6.257,6.257,0,0,1,14,7.5,0.625,0.625,0,1,0,14,6.249Z"/>
</svg>
